<?xml version="1.0" encoding="UTF-8"?>
<!DOCTYPE svg PUBLIC "-//W3C//DTD SVG 1.1//EN" "http://www.w3.org/Graphics/SVG/1.1/DTD/svg11.dtd">
<!-- Creator: CorelDRAW 2021 (64-Bit) -->
<svg xmlns="http://www.w3.org/2000/svg" xml:space="preserve" width="8.5in" height="11in" version="1.1" style="shape-rendering:geometricPrecision; text-rendering:geometricPrecision; image-rendering:optimizeQuality; fill-rule:evenodd; clip-rule:evenodd"
viewBox="0 0 8500 11000"
 xmlns:xlink="http://www.w3.org/1999/xlink"
 xmlns:xodm="http://www.corel.com/coreldraw/odm/2003">
 <defs>
  <style type="text/css">
   <![CDATA[
    .fil2 {fill:#121212}
    .fil0 {fill:#155E20}
    .fil5 {fill:#FCA707}
    .fil6 {fill:#FDD906}
    .fil1 {fill:#FF7A00}
    .fil3 {fill:#FFC107}
    .fil7 {fill:gold}
    .fil4 {fill:#FFFDEF}
   ]]>
  </style>
 </defs>
 <g id="Layer_x0020_1">
  <metadata id="CorelCorpID_0Corel-Layer"/>
  <g id="_2829426495904">
   <path class="fil0" d="M3520.2 6446.07c1.06,1.43 2.01,2.31 2.38,4.76l10.88 18.97c8.06,10.36 9.81,11.54 26.73,20.44 88.72,46.72 389.52,206.59 456.58,172.3 31.13,-15.93 119.8,-272.32 223.4,-369.96 11.76,54.35 -51.38,189.48 -84.1,244.9l-67.04 103.5c-39.95,58.23 -36.76,68.3 -92.04,90.68 10.29,78.78 38.08,161.54 21.54,248.47 74.67,14.63 146.62,47.35 221.14,64.54 327.05,75.43 414.86,55.57 715.52,41.59l46.99 -3.72c43.28,-12.75 -5.48,10 16.87,-7.9l11.96 -0.44c-3.63,-146.8 191.88,-519.74 145.39,-717.02 -6.2,-26.33 -9.94,-30.11 -3.39,-41.94 -26.4,-104.2 -156.37,-303.54 -216.14,-352.16 -127.91,81.27 -286.44,16.62 -397.58,-61.48l-48.34 -36.93c-1.18,-1.03 -2.81,-2.64 -4,-3.67 -1.2,-1.03 -2.87,-2.6 -4.09,-3.61l-112.97 -89c-39.97,-30.46 -97.52,-58.64 -143.63,-81.93 -41.3,-20.86 -59.22,-32.63 -108.85,-43.87 -68.61,6.99 -183.02,91.56 -226.8,128.39 -65.02,54.7 -115.87,108.97 -170.35,187.3 -93.48,134.41 -163.87,307.67 -220.05,487.78z"/>
   <path class="fil1" d="M3502.83 3981.89c16.11,163.31 177.19,297.91 289.78,357.54 307.04,162.63 801.55,156.54 1150.16,111.81 170.01,-21.82 368.43,-94.91 473.57,-178.82 54.37,-43.39 112.92,-97.23 147.28,-170.53 9.39,-20.03 47.44,-101.94 28.64,-118.55 -24.84,-21.95 -732.63,-13.11 -799.07,-12.75 -428.5,2.32 -865.18,-11.44 -1290.34,11.3z"/>
   <path class="fil2" d="M4135.07 5107.67c5.67,-111.78 41.39,-243.29 115.26,-331.87l159.87 -135.47c138.56,-85.08 197.17,-83.17 359.64,-97.3 -1.8,2.33 -4.64,2.31 -5.87,6.59 -3.42,11.8 -53.53,44.72 -56.39,46.97l-60.35 48.33c-22.14,25.64 -1.19,17 -35.9,41.27l-152.15 143.28c-27.18,29.56 -45.27,45.56 -76.52,70.8 -90.52,73.12 -49.4,65.86 -112.51,105.21 -33.15,20.67 -73.28,81.35 -135.08,102.19zm-632.24 -1125.78c425.17,-22.74 861.84,-8.98 1290.34,-11.3 66.44,-0.36 774.24,-9.2 799.07,12.75 18.8,16.61 -19.25,98.52 -28.64,118.55 -34.35,73.3 -92.91,127.14 -147.28,170.53 -105.14,83.91 -303.56,157 -473.57,178.82 -348.61,44.74 -843.12,50.82 -1150.16,-111.81 -112.59,-59.63 -273.67,-194.22 -289.78,-357.54zm620.01 550.72c235.19,40.97 123.59,27.67 364.1,28.51l-38.41 25.43c-75.43,37.27 -102.64,42.5 -181.19,97.7 -59.02,41.47 -30.68,27.93 -61.13,55.09 -17.91,15.97 -15,7.5 -29.22,24.8 -53.92,65.6 -76.12,177.76 -78.21,264.14 -0.78,32.5 1.56,37.76 -22.03,45.46 10.89,8.1 51.2,35.18 60.32,46.7 20.22,25.54 14.88,41 41.96,68.76 -5.57,-14.98 -2.68,-14.7 -8.34,-32.58 46.09,-35.81 16.44,-30.33 84.76,-80.44 35.35,-25.93 69.65,-47.58 94.59,-84.38 33.87,-49.98 82.21,-60.54 113.29,-104.24 14.54,-20.45 -0.32,-5.36 19.83,-26.3l96.31 -82.63c30.8,-23.19 17.73,-20.67 40.74,-44.26l144.85 -119.54c1.29,-1 3.13,-2.38 4.4,-3.39 1.25,-1 2.99,-2.5 4.22,-3.52l12.19 -10.85c1.2,-1.02 2.94,-2.53 4.16,-3.54 0.91,-0.76 22.39,-17.09 26.65,-19.95 49.83,-33.63 47.64,-32.99 92.33,-40 5.97,-0.94 13.83,-2.1 19.63,-3.54 2,-0.5 4.35,-1.25 6.11,-1.75l11.65 -4.19c135.36,18.74 421.72,-128.82 504.47,-186.19 109.93,-76.21 172.84,-166.59 218.14,-294.45 12.48,-35.24 38.38,-112.79 16.56,-148.74l-2108.31 0.2c-139.85,-4.11 -174.16,-13.45 -173.6,41.11 0.66,64.22 44.61,165.28 76.33,218.61 49.61,83.43 92.34,124.83 161.38,180.62 186.3,150.54 448.85,179.41 481.45,197.31z"/>
   <g>
    <path class="fil2" d="M4039.26 7749.72c-21.51,15.55 -31.87,16.44 -51.57,-1.83 -14.07,-8.98 -14.78,-0.44 -21.82,-26.38 -4.13,-15.23 -3.58,-21.45 3.07,-35.38 11.8,-24.7 37.13,-29.15 72.18,-22.05 24.26,28.91 35.74,59.13 -1.86,85.63zm414.81 -32.02c-24.84,71 -113.83,34.29 -96.72,-29.56 15.5,-57.84 120.42,-38.17 96.72,29.56zm366.65 -74.08c-22.64,7.71 -49.92,21.17 -74.39,-3.3 -20.72,-20.71 -22.12,-50.04 -1,-71.29 43.32,-43.59 101.57,-5.31 75.39,74.58zm215.92 -47.28c-31.43,11.17 -45.77,10.19 -76.96,0.13 -11.54,-34.99 -18.74,-87.12 35.14,-89.99 63.75,-3.39 55.86,51.57 41.81,89.85zm-835.39 -134.03c60.56,-4.5 74.69,10.53 71.09,70.85 -23.47,18.9 -51.87,49.53 -84.64,13.53 -31.44,-34.54 -10.14,-57.98 13.55,-84.38zm399.72 -31.51c14.94,18.3 34.38,32.3 25.33,64.86 -6.93,24.95 -31.67,41.81 -63.66,34.02 -44.79,-10.91 -63.26,-103.53 38.33,-98.88zm-550.13 -67c25.59,92.68 -48.24,111.8 -78.87,72.35 -42.48,-54.72 8.88,-102.92 78.87,-72.35zm870.03 4.52c-67.98,5.83 -83.11,-22.17 -67.32,-81.98 34.65,-22.56 54.46,-19.47 88.05,1.69 11.66,43.31 3.61,48.74 -20.72,80.29zm-506.91 -43.12c-61.21,39.06 -115,-6.22 -88.42,-58.5 20.74,-40.79 113,-45.57 88.42,58.5zm212.89 -14.92c-27.52,-81.8 34.08,-116.81 77.17,-78.1 20.2,18.15 18.72,58.31 -1.2,77.08 -23.19,21.84 -54.84,7.22 -75.96,1.02zm-490.32 -127.92c20.93,26.1 43.1,54.4 12.66,85.43 -34.2,34.87 -61.33,3.5 -85.17,-15.19 -3.44,-59.85 13.2,-73.04 72.52,-70.24zm-298.39 146.93c-75.02,-405.28 -116.26,-180.88 35.27,-500.26 18.78,-39.59 52.58,-122.58 81.24,-142.3 56.5,36.7 61.86,185.51 62.31,270.08 -3.51,37.95 -8.98,-11.62 -51.15,80.8l-118.87 277.09c-11.06,20.75 -1.62,4.35 -8.8,14.59zm-317.94 -883.22c1.76,93.94 60.83,-9.58 -0.65,160.95 -57.69,160.01 -148.54,382.89 -103.2,546.3 28.94,104.34 166.53,423.08 223.65,560.45 5.02,12.08 10.13,26.65 15.36,39.09l19.96 36.35c22.62,15.37 1408.62,13.22 1556.27,13.56l-212.54 -728.13c-22.35,17.9 26.41,-4.85 -16.87,7.9l-46.99 3.72c-300.65,13.99 -388.47,33.84 -715.52,-41.59 -74.52,-17.19 -146.47,-49.91 -221.14,-64.54 16.54,-86.93 -11.25,-169.69 -21.54,-248.47 55.28,-22.38 52.09,-32.45 92.04,-90.68l67.04 -103.5c32.72,-55.42 95.86,-190.55 84.1,-244.9 -103.59,97.64 -192.27,354.04 -223.4,369.96 -67.06,34.3 -367.85,-125.57 -456.58,-172.3 -16.92,-8.91 -18.67,-10.08 -26.73,-20.44l-10.88 -18.97c-0.37,-2.44 -1.32,-3.33 -2.38,-4.76z"/>
    <path class="fil2" d="M4594.32 5240.61l-60.85 2.15c-14.04,-21.09 -29.93,-31.27 -26.61,-62.54 6.76,-63.74 101.03,-67.52 113.13,-6.44 7.24,36.5 -8.97,44.83 -25.68,66.83zm-311.63 31.14c30.3,67.76 17.69,160.93 -10.5,224.42 -38.18,85.99 -72.24,93.38 -134.81,146.43 49.63,11.24 67.55,23.01 108.85,43.87 46.11,23.28 103.66,51.46 143.63,81.93l112.97 89c1.22,1.02 2.89,2.59 4.09,3.61 1.19,1.02 2.82,2.63 4,3.67l48.34 36.93c111.14,78.1 269.67,142.75 397.58,61.48 -169.41,-252.06 -302.53,-161.43 -228.87,-352.72 22.8,-59.21 32.43,-100.77 64.68,-143.84 97.56,-4.44 287.11,119.11 321.33,-45.02 18.19,-87.21 2.21,-44.95 59.05,-87.85 1.94,-45.71 -0.52,-37.31 -21.16,-60.3 75.48,-48.19 1.65,-68.11 -7.67,-102.29 15.42,-18.86 117.96,-48.18 36.39,-123.17 -190.87,-175.5 -35.35,-146.3 -113.57,-321.14 -22.69,-50.72 -57.81,-105.22 -96,-131.62 -29.98,7.85 -0.56,-5.5 -26.8,20.36l-7.75 8.07c-48.23,46.35 -65.75,83.1 -91.99,102.05 -105.35,76.06 -201.12,240.22 -340.03,343l-45.33 40.14c-23.34,28.94 -22.53,16.18 -47.08,38.49 -36.76,33.41 -118.04,89.92 -129.38,124.5z"/>
    <path class="fil2" d="M5173 6315.24c-6.56,11.83 -2.82,15.61 3.39,41.94 46.49,197.28 -149.02,570.22 -145.39,717.02 7.89,10.44 55.71,52.44 70.46,63.41 130.55,97.03 221.94,-22.83 347.74,-123.04l327.04 -348.42c149.2,-167.47 171.56,-102.96 276.07,-266.75 24.27,-38.03 108.35,-123.72 78.56,-182.48 -24.42,-23.07 -57,26 -112.55,63.46 -4.97,3.35 -14.1,9.4 -19.02,10.79l-9.48 0.72c-0.83,0.06 -4.09,0.71 -4.68,-0.89 -1.46,-3.91 -9.19,5.64 -6.61,-15.22 4.98,-40.26 83.75,-134.73 106.9,-161.53 36.14,-41.84 101.65,-145.3 39.59,-201.86 -52.91,-26.94 -222.23,134.91 -249.67,177.9 -165.12,258.69 -76.15,275.31 -242.38,402.01 -38.81,29.58 -78.85,60.62 -121.49,87.77 -70.02,44.59 -194.65,123.91 -275.75,154.48 -4.42,-6.37 -1.55,0.24 -9.17,-16.26l-25.45 -83.84c-8.58,-30.67 -25.2,-68 -24.37,-95.15 3.03,-97.89 27.37,-110.53 -3.74,-224.06z"/>
   </g>
   <path class="fil3" d="M4114.21 3887.34c56.24,15.38 264.26,6.38 337.35,7.14 112.94,1.16 225.98,-1.02 338.75,-1.86 53.8,-207.77 -112.13,-370.11 -318.01,-331.46 -97.43,18.3 -169.53,65.04 -222.22,119.46 -53.34,55.08 -114.85,119.39 -135.87,206.72z"/>
   <path class="fil3" d="M3802.57 3668.98c78.94,8.95 143.26,51.6 185.01,110.41 19.08,26.87 39.77,56.54 48.89,88.18 3.07,10.67 1.07,22.07 38.54,18.14 38.45,-101.4 19.4,-141.78 128.41,-243.95 53.11,-49.78 173.93,-107.92 265.04,-114.81 -67.72,-132.56 -252.78,-170.96 -387.65,-132.26 -111.38,31.96 -188.15,85.25 -240.73,178.76 -18.92,33.65 -23.49,66.53 -37.51,95.54z"/>
   <path class="fil0" d="M4179.05 5189.22c16.63,37.17 60.63,61.95 103.65,82.53 11.33,-34.58 92.62,-91.09 129.38,-124.5 24.55,-22.31 23.74,-9.54 47.08,-38.49l45.33 -40.14c138.91,-102.78 234.69,-266.94 340.03,-343 26.24,-18.94 43.76,-55.7 91.99,-102.05l7.75 -8.07c26.24,-25.85 -3.19,-12.51 26.8,-20.36 -13.97,-19.16 -18.39,-41.14 -24.62,-71l-11.65 4.19c-1.76,0.5 -4.11,1.26 -6.11,1.75 -5.8,1.43 -13.66,2.6 -19.63,3.54 -44.69,7 -42.49,6.37 -92.33,40 -4.25,2.87 -25.73,19.2 -26.65,19.95 -1.22,1.01 -2.96,2.51 -4.16,3.54l-12.19 10.85c-1.23,1.02 -2.96,2.51 -4.22,3.52 -1.28,1.02 -3.11,2.39 -4.4,3.39l-144.85 119.54c-23.02,23.59 -9.95,21.07 -40.74,44.26l-96.31 82.63c-20.15,20.94 -5.29,5.85 -19.83,26.3 -31.08,43.7 -79.42,54.26 -113.29,104.24 -24.94,36.8 -59.24,58.45 -94.59,84.38 -68.31,50.11 -38.66,44.63 -84.76,80.44 5.67,17.87 2.78,17.6 8.34,32.58z"/>
   <path class="fil1" d="M4824.48 3676.89c1.38,-1.67 3.12,-6.64 3.74,-5.33 0.6,1.28 2.85,-4.07 3.68,-5.22 5.23,-7.25 7.35,-10.42 10.4,-14.37 47.67,-61.67 151.28,-114.72 222.61,-70.94 2.47,-1.34 7.74,-4.08 8.2,-1.93l5.36 -8.38c-3.81,-253.22 -284.67,-320.75 -467.17,-196.73 -35.57,24.17 -109.8,91.45 -110.92,148.34 48,-11.73 157.23,9.57 199.02,27.33 58.02,24.65 102.15,74.54 125.07,127.24z"/>
   <path class="fil1" d="M5104.03 3595.03c28.49,32.38 51.56,49.69 65.1,120.8 14.04,73.74 8.6,109.81 -18.76,168.67l387.56 -0.15c-21.98,-125.58 -52.47,-259.4 -124.46,-319.8 -121.44,-101.89 -218.83,-46.52 -309.44,30.48z"/>
   <path class="fil0" d="M4135.07 5107.67c61.8,-20.83 101.93,-81.52 135.08,-102.19 63.11,-39.35 21.98,-32.09 112.51,-105.21 31.24,-25.24 49.34,-41.24 76.52,-70.8l152.15 -143.28c34.72,-24.27 13.76,-15.63 35.9,-41.27l60.35 -48.33c2.86,-2.24 52.97,-35.17 56.39,-46.97 1.24,-4.27 4.07,-4.26 5.87,-6.59 -162.47,14.13 -221.08,12.21 -359.64,97.3l-159.87 135.47c-73.87,88.58 -109.6,220.08 -115.26,331.87z"/>
   <path class="fil0" d="M4076.77 5073.76c23.59,-7.7 21.24,-12.96 22.03,-45.46 2.09,-86.38 24.29,-198.54 78.21,-264.14 14.22,-17.31 11.32,-8.83 29.22,-24.8 30.45,-27.16 2.11,-13.62 61.13,-55.09 78.55,-55.2 105.76,-60.44 181.19,-97.7l38.41 -25.43c-240.52,-0.84 -128.91,12.46 -364.1,-28.51 -37.01,26.77 -62.84,60.05 -97.31,103.98 -38.64,49.24 -42.24,71.49 -56.09,146.12 -29.52,159.11 18.74,224.56 107.33,291.05z"/>
   <path class="fil3" d="M4824.48 3676.89c32.8,43.96 43.25,147.09 45.13,213.37 104.54,28.5 277.06,-6.34 335.06,-7.64 65.87,-1.47 283.62,-7.78 333.35,4.94l-0.09 -3.22 -387.56 0.15c27.36,-58.85 32.8,-94.92 18.76,-168.67 -13.54,-71.11 -36.61,-88.42 -65.1,-120.8 -20.6,-9.21 -12.8,0.11 -25.56,-24.31l-5.36 8.38c-0.45,-2.15 -5.73,0.59 -8.2,1.93 -71.33,-43.77 -174.94,9.27 -222.61,70.94 -3.05,3.95 -5.17,7.11 -10.4,14.37 -0.83,1.15 -3.08,6.5 -3.68,5.22 -0.62,-1.31 -2.36,3.66 -3.74,5.33z"/>
   <path class="fil1" d="M3577.28 3894.95l2108.31 -0.2c-40.46,-10.66 -102.67,4.28 -147.57,-7.19 -49.72,-12.72 -267.47,-6.41 -333.35,-4.94 -58,1.3 -230.52,36.13 -335.06,7.64l-79.31 2.36c-112.78,0.84 -225.81,3.02 -338.75,1.86 -73.08,-0.76 -281.11,8.24 -337.35,-7.14l-39.2 -1.63c-37.47,3.93 -35.47,-7.47 -38.54,-18.14 -9.12,-31.64 -29.81,-61.3 -48.89,-88.18 -41.75,-58.8 -106.07,-101.46 -185.01,-110.41 -71.73,12.75 -111.96,32.45 -151.16,73.07 -50.03,51.86 -51.72,72.41 -74.13,152.89z"/>
   <path class="fil4" d="M3838.14 7329.3c7.18,-10.23 -2.26,6.16 8.8,-14.59l118.87 -277.09c42.18,-92.43 47.64,-42.85 51.15,-80.8 -0.45,-84.57 -5.82,-233.38 -62.31,-270.08 -28.66,19.72 -62.46,102.71 -81.24,142.3 -151.53,319.38 -110.3,94.98 -35.27,500.26z"/>
   <path class="fil5" d="M4626.85 7310.29c21.12,6.2 52.78,20.82 75.96,-1.02 19.92,-18.77 21.4,-58.93 1.2,-77.08 -43.09,-38.72 -104.68,-3.7 -77.17,78.1z"/>
   <path class="fil5" d="M4454.07 7717.7c23.7,-67.73 -81.22,-87.4 -96.72,-29.56 -17.11,63.84 71.88,100.56 96.72,29.56z"/>
   <path class="fil5" d="M4050.84 7363.8c-70,-30.57 -121.36,17.63 -78.87,72.35 30.64,39.46 104.47,20.33 78.87,-72.35z"/>
   <path class="fil5" d="M4600.97 7430.81c-101.59,-4.65 -83.12,87.96 -38.33,98.88 31.99,7.8 56.72,-9.06 63.66,-34.02 9.05,-32.56 -10.39,-46.56 -25.33,-64.86z"/>
   <path class="fil5" d="M4413.96 7325.21c24.57,-104.07 -67.68,-99.29 -88.42,-58.5 -26.58,52.28 27.21,97.56 88.42,58.5z"/>
   <path class="fil5" d="M4201.25 7462.31c-23.69,26.41 -44.99,49.84 -13.55,84.38 32.77,36 61.17,5.37 84.64,-13.53 3.61,-60.33 -10.53,-75.36 -71.09,-70.85z"/>
   <path class="fil5" d="M4820.72 7643.62c26.18,-79.89 -32.07,-118.18 -75.39,-74.58 -21.12,21.25 -19.72,50.57 1,71.29 24.47,24.46 51.75,11.01 74.39,3.3z"/>
   <path class="fil5" d="M4136.53 7182.37c-59.32,-2.8 -75.96,10.39 -72.52,70.24 23.84,18.69 50.97,50.07 85.17,15.19 30.44,-31.04 8.27,-59.33 -12.66,-85.43z"/>
   <path class="fil5" d="M4920.87 7368.33c24.34,-31.54 32.38,-36.98 20.72,-80.29 -33.59,-21.17 -53.4,-24.25 -88.05,-1.69 -15.79,59.81 -0.66,87.81 67.32,81.98z"/>
   <path class="fil5" d="M5036.64 7596.34c14.05,-38.28 21.94,-93.24 -41.81,-89.85 -53.88,2.87 -46.68,55 -35.14,89.99 31.19,10.06 45.53,11.04 76.96,-0.13z"/>
   <path class="fil5" d="M3987.69 7747.89c19.69,18.27 30.06,17.37 51.57,1.83 -14.57,-9.35 -11.71,12.48 -11.71,-9.12 22.67,-6.46 37.41,7.74 17.47,-65.14 -81.22,-4.94 -77.2,1.25 -60.85,64.64 17.17,7.97 17.52,-1.6 3.53,7.79z"/>
   <path class="fil6" d="M3987.69 7747.89c13.99,-9.39 13.64,0.18 -3.53,-7.79 -16.35,-63.39 -20.37,-69.58 60.85,-64.64 19.94,72.88 5.2,58.68 -17.47,65.14 0,21.6 -2.85,-0.22 11.71,9.12 37.61,-26.5 26.13,-56.72 1.86,-85.63 -35.05,-7.11 -60.38,-2.65 -72.18,22.05 -6.65,13.93 -7.21,20.15 -3.07,35.38 7.04,25.93 7.76,17.39 21.82,26.38z"/>
   <circle class="fil7" cx="4563.09" cy="5186.18" r="65.93"/>
  </g>
 </g>
</svg>
